<?xml version="1.0" encoding="UTF-8"?>
<svg id="Capa_2" data-name="Capa 2" xmlns="http://www.w3.org/2000/svg" viewBox="0 0 441.5 403">
  <defs>
    <style>
      .cls-1 {
        fill: #fff;
      }

      .cls-2 {
        fill: #f9f9f9;
      }
    </style>
  </defs>
  <g id="Capa_1-2" data-name="Capa 1">
    <g>
      <rect class="cls-2" width="441.5" height="403" rx="87" ry="87"/>
      <path d="M387.39,315.54c.53.49-2.16,4.87-2.64,5.67-13.37,22.69-46.32,57.76-70.66,68.17-21.82,9.34-49.04,5.93-72.65,5.64-14.7-.18-29.53-.79-44.33-.62-25.5.29-55.77,5.16-79.51-5.02-24.92-10.68-56.59-45.28-70.66-68.17-.59-.96-4.81-8.13-4.36-8.53l34.42.69c18.27,29.97,46.92,52.69,80.82,62.93,32.97,9.95,83.06,9.93,116.03,0,33.56-10.11,60.77-31.83,79.85-60.76h33.67Z"/>
      <path d="M280.32,9.72l-2.58,14.3c-.79,1.04-5.18.21-7.36,1.26-4.56,2.2-5.55,8.63-2.41,12.42,1.37,1.65,3.85,1.42,3.63,3.59-.2,1.95-9.43,18.14-10.86,19.04l-1.28.17c-5.39-2-10.94-3.53-16.55-4.78-76.78-17.05-150.06,20.67-178.3,93.32-1.96,5.04-3.32,10.28-5.32,15.3-8.91,1.81-18.02,1.4-27.06,1.41,20.56-55.67,67.43-99.21,125.24-114.85,11.77-3.18,23.86-5.21,35.93-6.91l-9.79-25.72c23.82.03,47.34.78,70.92-3.03,8.69-1.4,17.16-3.88,25.78-5.55Z"/>
      <path d="M334.68,129.52c-52.98-48.55-144.56-47.67-185.15,15.82-2.56,4.01-4.51,8.47-7.06,12.43l-1.43-.87c10.92-45.73,50.6-78,97.07-83.65,55.79-6.78,110.81,19.27,142.95,64.23l-1.45.83-33.39,2.65c-3.7-4.01-7.51-7.75-11.53-11.44Z"/>
      <path d="M353.93,197.86c2.64,10.08-4.17,20.12-10.3,27.64-2.57,3.14-11.7,11.24-12.78,13.6-1.48,3.21-.86,9.06,3.27,9.6s12.61-4.65,15.31-7.72c1.78-2.01,3.36-10.74,5.05-14.42,3.48-7.56,12.99-18.76,19.37-24.21,8.06-6.89,11.32-6.33,8.67,5.18-1.58,6.86-6.8,13.76-11.26,19.11-2.64,3.17-10.21,9.65-11.74,12.35-1.87,3.31-.8,9.28,3.39,9.71s12.88-4.98,15.59-8.02c1.8-2.01,3.12-6.59,5.45-9.45,3.85-4.72,11.4-9.96,17.55-10.58,4.91-.5,11.17-.26,9.81,6.31s-10.86,11.32-16.62,13.79c-3.12,1.34-8.64,1.43-5.61,6.51,2.3,3.86,9.88,1.42,13.09-.22,1.62-.83,11.7-8.68,12.27-8.11-.21,1.33.87,2.72.31,3.98-.23.51-5.19,5.28-6.06,6.03-9.97,8.59-28.15,16.54-30.22-3.15-8.77,9.23-26.42,21.01-28.78,0-8.4,9.64-27.29,20.89-28.21-.57-6.92,8-28.52,21.61-33.39,5.14-4.41-14.93,12.62-31.54,27.58-29.68,5.43.68,5.67,4.78,3.45,9.04-3.37,6.46-14.36,10.57-20.94,12.93-3.22,6.22,3.01,7.35,8.08,6.31,2.93-.6,13.94-7.38,15.53-9.73,1.01-1.48,1.45-5.8,2.27-8.04,3.52-9.64,10.59-18.53,17.84-25.73,1.86-1.85,9.5-9.21,12.03-7.63ZM333.86,228.08c5.46-4.7,10.47-11.46,12.65-18.29-5.8,4.71-9.77,11.52-12.65,18.29ZM362.65,228.08c5.38-4.86,10.03-11.5,12.65-18.29-5.96,4.62-9.99,11.35-12.65,18.29ZM311.41,226.37c-5.62,1.02-10.53,5.65-12.66,10.86.9.82,6.73-3.19,7.76-4.01,1.12-.9,6.21-5.49,4.9-6.84ZM389.7,237.8c3.37-1.64,7.39-3.64,10.06-6.29,2.25-2.24,5.32-6.6-.27-4.27-4.05,1.68-8.46,6.4-9.79,10.57Z"/>
      <path d="M111.5,241.06c.61-.88.62-2.96,1.22-4.23,3.86-8.27,13.75-15.12,22.9-16.12,4.91-.54,10.22.47,6.56,6.21,3.86,1.24,2.83,7.1,1.91,10.2-.2.66-3.37,6.41-2.19,6.4,2.01-.52,3.82-1.29,5.47-2.57,3.3-2.56,3.57-6.5,6.33-9.72,4.77-5.54,15.31-10.9,22.74-10.62,4.57.17,6.57,2.75,3.15,6.31,3.68.75,3.16,5.69,2.62,8.61-.35,1.86-3.19,6.73-3.18,7.12.03.98,1.1.54,1.6.47,2.56-.38,5.48-2.97,7.32-4.76,1.1-.48,1.48,2.62,1.46,3.17-.1,3.74-7.05,7.3-10.24,8.13-1.32.34-2.75-.03-4.21.39-2.06.6-4.99,3.99-7.43,5.19-9.74,4.78-17.03.52-17.87-10.02-1.74,1.19-3.33,2.76-5.35,3.54-2.71,1.05-5.67.6-7.74,1.46-3.83,1.59-5.6,5.95-12.09,6.85-8.32,1.15-10.6-4.06-13.09-10.7-5.62,5.74-21.85,18.53-26.64,5.86-6.46-17.09,11.06-40.76,23.78-51.02,3.68-2.97,8.74-6.47,8.27,1.33-.56,9.16-6.87,17.87-12.62,24.65-2.81,3.32-9.17,8.58-11.18,11.76-2.47,3.9-.5,9.85,4.58,9.74,2.93-.07,12.4-5.46,13.93-7.64ZM95.56,228.65c2.73-1.34,13.84-16.78,12.65-18.29-5.83,4.14-9.83,11.77-12.65,18.29ZM170.38,231.51c-5.48,3.03-13.59,7.47-13.77,14.65-.15,5.91,8.89,3.56,10.63.78.48-.76-.54-5.47-.17-7.58.45-2.6,2.46-5.37,3.31-7.85ZM132.39,232.09c-6.01,2.15-15.02,8.78-12.98,16.05.82,2.94,6.25,1.61,8.34.2,3.77-2.56.98-3.67,1.23-7.31.19-2.82,2.26-6.36,3.41-8.94Z"/>
      <path d="M254.42,225.79c6.63,1.01,14.13,1.73,20.46,3.98,20.2,7.19,1.06,20.66-9.95,24.47-9.25,3.2-34.62,8.17-35.28-7.04-.27-6.14,7.38-12.9,10.38-17.97-2.3.22-9.14-1.05-8.54-4.21.78-4.09,13.47-3.58,16.55-5.27,1.97-1.08,5.17-5.33,7.26-7.08,4.11-3.43,9.02-6.78,14.66-6.3l-8.05,11.15c5.46.45,21.32-3.89,24.11-8.64s-4.09-6.8-7.71-7.07c-9.91-.74-21.27,4-30.79,6.28-.17.18,1.3,2.73-.71,3.61-5.23-.32-14.68,5.18-19.04,4.83-.71-.06-1.48-.44-1.75-1.15-1.25-2.92,3.38-9.19,5.4-11.56,6.7-7.9,20.79-10.17,30.87-11.64,9.5-1.38,33.82-3.94,33.36,10.96-.35,11.3-16.82,16.05-25.79,18.28-4.06,1.01-9.75,1.36-13.41,2.69-.87.32-1.76.73-2.03,1.7ZM241.93,243.92c2.39,2.9,10.76,2.72,14.25,2.19,3.18-.49,17.33-5.69,16.57-9.66-5.35-5.58-15.43-4.8-22.67-5.85-2.66,2.62-11.52,9.24-8.15,13.32Z"/>
      <path d="M50.08,225.79c7.61,1.18,16.84,1.86,23.82,5.22,15.51,7.46-3.47,19.65-12,22.81-10.18,3.77-39.88,9.25-35.86-9.89.57-2.72,10.3-14.11,9.65-14.7-1.82-.08-7.38-.89-7.98-2.67-2.03-5.98,13.05-5.1,16.2-6.61,2.43-1.16,6.49-6.64,9.1-8.68,3.43-2.68,8.72-5.63,13.19-4.62l-8.63,11.14c5.73.08,23.28-4.47,25.1-10.27.76-2.42-1.46-3.87-3.48-4.62-10.35-3.83-25.69,2.92-36.01,5.18l.53,2.47-1.26,1.09-17.98,4.95-2.3-1.08c-1.97-3.24,5.83-13.01,8.4-15.1,7.05-5.72,34.76-10.11,43.98-9.48,6.24.43,15.96,2.69,16.93,10.04,1.87,14.09-18.46,18.59-28.72,21.11-3.22.79-8.31,1.09-11.08,2.14-.67.25-1.41.85-1.59,1.56ZM45.31,231.06c-3.87,4.45-14.21,11.49-3.54,14.71,4.86,1.47,10.35.63,15.1-.95,2.59-.87,14.37-5.7,11.06-9.59-2.43-2.85-19.09-5.19-22.61-4.18Z"/>
      <path d="M201.48,277.81c-.19-1.47-1.35-2.85-2.9-2.03l-2.87,7.74,5.19.28.56,2.01-6.26.64c-.35,2.73-.83,5.45-.67,8.25.08,1.44,1.88,7.93.3,8.26-3.25.67-3.04-13.67-2.01-15.71l-.84-.78c-.97.66-3.62.62-4.23-.24-.49-.69.62-2.43-1.82-1.25-2.19,1.05-4.74,5.14-5.01,7.49-.17,1.44,1.61,3.72-2.22,2.52l-.84-13.17,2.26.04.62,4.53c2.32-2.03,7.54-7.41,8.95-2.25.87-.08,1.98.15,2.77-.11,1.91-.63.58-10.51,6.67-11.1,5.53-.54,4.29,6.28,2.34,4.89Z"/>
      <path d="M223.92,289.24l4.55-6.61c5.76-3.42,4.29,4.55,4.94,7.76l5.82-8.62,2.51.65c-.58,3.05-1.02,6.09.02,9.11,1.85.56,2.47-1.5,3.44-2.01,3.11-1.62,1.16,5.07-2.95,4.58-3.35-.4-3.04-3.73-4.24-6-1.28,1.92-3.27,6.95-6.27,6.33-1.76-.37-.07-9.19-1.79-9.17-1.6.85-6.34,10.86-8.34,9.14-1.08-2.83-.07-4.98.03-7.7.06-1.7-1.46-6.33,1.4-5.45,1.61.5.59,6.44.87,7.99Z"/>
      <path d="M164.45,281.98c2.27,2.59-1.75,4.57-3.71,5.41-3.91,1.68-10.32,1.02-6.48,6.7l-1.45.91c-3.34.33-2.2-4.64-2.67-5.14-.14-.15-2.15.15-2.22-1.76l2.24-.06,1.17-6.55,2.91-.25-1.15,5.71,9.21-3.14c-4.22-3.08-9.87-3.61-14.91-2.62-2.39-4.68,6.19-3.14,8.72-2.67,2.03.38,7.02,1.97,8.32,3.45Z"/>
      <path d="M293.52,294.33c-2,2.74-4.21-3.02-3.41-4.51-1.89.85-4.74,5.76-6.88,4.88-3.96-1.38-.07-13.48,1.71-14.32,2.17-1.02,7.05.2,8.94,1.43.54,1.22-.76,3.59-.91,5.4-.12,1.53.76,6.82.55,7.11ZM283.79,291.53c.69.85,11.33-10.42,3.88-9.06-2.99.55-3.03,6.53-3.88,9.06Z"/>
      <path d="M204.93,291.53c2.22-1.43,5.03-3.63,6.63-5.7s2.1-6.54,4.21-2.12c-1.49,1.74-2.92,7.69-.09,8.31,1.22.26,3.27-1.59,3.63.93-4.23,3.03-7.59,1.45-7.77-3.7-2.01,1.61-4.86,6.28-7.77,4.87-1.52-1.18-1.82-2.76-1.78-4.59.02-1.01.52-6.13.71-6.77.43-1.43,2.63-1.62,2.55.76-.09,2.62-.64,5.34-.33,8.01Z"/>
      <path d="M168.17,292.59c1.52,2.39,5.47-2.21,7.1-2.2,1.75,5.22-8.52,7.68-9.48,2.56s.91-12.26,7.06-12.77c1.68.96,2.47,2.65,1.9,4.51-1.12,3.65-9.19,3.82-6.58,7.9Z"/>
      <path d="M250.42,288.7l.06,3.89c2.95,1.95,4.55-1.98,7.4-2.2.61,6.05-9.63,7.68-10.23,1.3-.09-.9.8-6.76,1.2-7.42.17-.28,3.62-3.58,4.02-3.75,1.18-.49,1.81-.52,2.93.21,4.21,2.75-1.51,8.56-5.37,7.97Z"/>
      <path d="M262.48,281.81l.59,4.57c2.28-1.6,4.22-4.81,7.48-4.3.54.08,1.56.31,1.15,1.15-4.67,2.33-6.89,3.65-8.36,8.85-.33,1.15.89,3.06-1.7,3.44-1.61-.33-.83-11.21-1.88-12.88l2.73-.83Z"/>
      <path d="M275.15,281.24l-1.15,10.29c1.99.3,2.61-1.67,4.43-2.17.85-.23,2.2-.55,1.9.75-.36,2.04-4.7,4.24-6.64,4.65-3.91-.47-.57-10.92-1.43-13.52h2.88Z"/>
      <path d="M272.49,277.44c.78-1.04,6.05-5.72,6.68-2.77l-5.56,4.76c-1.98.2-2.13-.66-1.12-2Z"/>
      <path class="cls-1" d="M311.41,226.37c1.31,1.36-3.78,5.94-4.9,6.84-1.02.82-6.85,4.83-7.76,4.01,2.13-5.2,7.03-9.84,12.66-10.86Z"/>
      <path class="cls-1" d="M389.7,237.8c1.33-4.16,5.74-8.88,9.79-10.57,5.59-2.32,2.53,2.04.27,4.27-2.67,2.65-6.7,4.65-10.06,6.29Z"/>
      <path class="cls-1" d="M333.86,228.08c2.89-6.78,6.86-13.58,12.65-18.29-2.18,6.83-7.19,13.59-12.65,18.29Z"/>
      <path class="cls-1" d="M362.65,228.08c2.66-6.95,6.7-13.67,12.65-18.29-2.63,6.79-7.27,13.43-12.65,18.29Z"/>
      <path class="cls-1" d="M170.38,231.51c-.85,2.48-2.86,5.25-3.31,7.85-.37,2.11.64,6.82.17,7.58-1.74,2.78-10.78,5.13-10.63-.78.18-7.18,8.29-11.61,13.77-14.65Z"/>
      <path class="cls-1" d="M132.39,232.09c-1.15,2.58-3.22,6.12-3.41,8.94-.25,3.64,2.54,4.75-1.23,7.31-2.09,1.42-7.51,2.74-8.34-.2-2.04-7.28,6.97-13.91,12.98-16.05Z"/>
      <path class="cls-1" d="M95.56,228.65c2.82-6.52,6.82-14.15,12.65-18.29,1.19,1.51-9.92,16.96-12.65,18.29Z"/>
      <path class="cls-1" d="M241.93,243.92c-3.37-4.09,5.48-10.71,8.15-13.32,7.25,1.05,17.32.28,22.67,5.85.76,3.97-13.39,9.18-16.57,9.66-3.49.53-11.86.71-14.25-2.19Z"/>
      <path class="cls-1" d="M45.31,231.06c3.52-1.02,20.18,1.33,22.61,4.18,3.32,3.88-8.46,8.72-11.06,9.59-4.74,1.58-10.23,2.42-15.1.95-10.67-3.22-.33-10.26,3.54-14.71Z"/>
      <path class="cls-1" d="M283.79,291.53c.85-2.52.89-8.51,3.88-9.06,7.45-1.36-3.19,9.91-3.88,9.06Z"/>
    </g>
  </g>
</svg>